<svg xmlns="http://www.w3.org/2000/svg" width="821.115" height="685.565" viewBox="0 0 821.115 685.565"><defs><style>.a{fill:#000014;}.a,.b,.c{fill-rule:evenodd;}.b{fill:blue;}.c{fill:#d9d9e4;}</style></defs><g transform="translate(306.086 11.711)"><path class="a" d="M542.722,24.731c8.649,10.008,13.058,23.516,21.877,50.521L742.173,647.8c-24.135-1.782-192.779-.275-199.452,0-18.736.771,149.344,5.576-11.15,0L401.459,197.4c-2.053-6.476-8.438-10.917-15.682-10.907s-13.616,4.467-15.649,10.949L256.871,647.8c-55.152-.97-182.06-.4-234.73,0-65.027-3.711,37.647-.521,0,0L208.413,75.119c8.854-26.967,13.272-40.446,21.921-50.433a71.057,71.057,0,0,1,28.849-19.9C271.961,0,287.084,0,317.334,0h138.3c30.286,0,45.431,0,58.222,4.8a71.07,71.07,0,0,1,28.862,19.933Z" transform="translate(436.087 662.165) rotate(180)"/><path class="b" d="M477.082,26.043c8.1,10.539,12.222,24.763,20.476,53.2L624.815,540.022l30.508,110.464c-86.024-1.529-145.8,1.529-228.911,9.175l-81.547-451.8a15.095,15.095,0,0,0-29.325.044L184.7,659.661C-13.366,685.629,244.167,658.454,0,673.854L164.182,79.1c8.287-28.4,12.422-42.591,20.517-53.108a66.95,66.95,0,0,1,27-20.955C223.661,0,237.815,0,266.128,0H395.574C423.92,0,438.1,0,450.068,5.053a66.976,66.976,0,0,1,27.014,20.99Z" transform="translate(436.087 673.854) rotate(180)"/><path class="c" d="M470.113,26.043c7.777,10.539,11.742,24.763,19.671,53.2L612.041,540.019,641.35,650.482c-82.643-1.529-140.073,1.529-219.914,9.175L343.093,207.862c-1.846-6.82-7.587-11.5-14.1-11.486s-12.243,4.7-14.071,11.529l-125.7,451.751C-1.06,685.625,185.644,660.015,0,673.875L169.511,79.1c7.961-28.4,11.934-42.591,19.711-53.108A64.738,64.738,0,0,1,215.162,5.04C226.651,0,240.25,0,267.45,0H391.809c27.232,0,40.85,0,52.352,5.053a64.766,64.766,0,0,1,25.952,20.99Z" transform="translate(515.029 662.165) rotate(180)"/></g></svg>