<svg xmlns="http://www.w3.org/2000/svg" width="36.255" height="24.552" viewBox="0 0 36.255 24.552">
  <defs>
    <style>
      .cls-1 {
        fill: #0178d4;
      }
    </style>
  </defs>
  <g id="favicon2" transform="translate(0 4.81) rotate(-8.192)">
    <path id="Pfad_2" data-name="Pfad 2" class="cls-1" d="M33.119,10.083l-1.757.293-2.4,5.017L25.7,7.42l-1.884.468-.647-1.436-1.982.609-6.3,8.381L5.353,0,1.685,2.668,13.3,19.887,14.5,18.2l0,0,1.09-1.522.243-.006,1.807,2.991,5.471-8.451-.016-.044,1.224-1.819h0l.04-.064,4.335,10.074.167-.018.948-2.1.79,1.847,3.16-7.293ZM2.212,3.034,5.478.571l.043.065L2.255,3.1Zm.319.471,3.229-2.5.05.072L2.58,3.577Zm.319.467L6.031,1.45l.053.079L2.9,4.051Zm.315.471,3.167-2.5.06.086-3.167,2.5Zm.319.471L6.6,2.372l.063.1L3.546,5.011Zm.315.467L6.917,2.894l.07.1L3.868,5.485Zm.319.471L7.165,3.3l.076.111L4.194,5.963Zm.319.471,3.013-2.56.08.119L4.516,6.441Zm.315.471L7.693,4.166,7.78,4.3,4.838,6.923Zm.319.467L7.994,4.649l.093.137L5.163,7.4Zm.319.471,2.9-2.6.1.144-2.9,2.6ZM5.7,8.2,8.54,5.535l.1.159L5.807,8.357Zm.319.467L8.85,6.043l.106.158L6.129,8.827Zm.315.471L9.138,6.5l.106.173L6.451,9.305Zm.319.471L9.436,6.987l.112.18L6.777,9.783Zm.319.467L9.733,7.466l.116.191-2.75,2.6Zm.315.471L9.975,7.866l.122.2L7.421,10.739Zm.319.471,2.649-2.693.126.205L7.743,11.217Zm.315.471,2.631-2.677.132.216L8.068,11.7Zm.319.467,2.594-2.694.139.223L8.394,12.173Zm.319.471,2.576-2.675.142.231L8.712,12.651Zm.315.471,2.534-2.692.149.238L9.034,13.129Zm.319.467,2.474-2.749.152.249L9.356,13.6Zm.315.471,2.46-2.737.159.256L9.681,14.085Zm.319.471,2.428-2.728.162.263L10,14.563Zm.319.471,2.4-2.734.169.274-2.386,2.723Zm.315.467,2.369-2.733.172.281-2.359,2.725Zm.319.471,2.328-2.754.179.288-2.317,2.742Zm.319.471,2.291-2.771.182.3-2.28,2.759Zm.315.467,2.253-2.784.188.306-2.242,2.772Zm.319.471,2.238-2.761.192.313-2.228,2.753Zm.315.471,2.217-2.749.2.321-2.206,2.741Zm.319.471,2.209-2.716.182.3-2.175,2.74Zm.319.467,2.188-2.707.182.3-2.147,2.739Zm.539.883L13,19.005l2.14-2.735.215.346Zm2.606-2.891-.254.01-.6-.976,6.261-8.42,1.75-.514Zm8.328-7.267-3.2,4.872L24.119,9.2l-.495-.955.567.981Zm-.312-1.272,1.717-.436L24.431,9.089ZM24.5,9.234,25.663,7.6l.016.04-1.16,1.635Zm.114.258,1.121-1.719.019.044L24.636,9.535Zm.123.287,1.107-1.736.019.051L24.759,9.829Zm.123.29,1.1-1.744.023.054-1.1,1.744Zm.123.287,1.107-1.718.026.058-1.107,1.718Zm.126.29L26.2,8.9l.026.065-1.09,1.751Zm.123.287,1.084-1.758.029.069L25.265,11Zm.123.29,1.09-1.732.032.073L25.391,11.3Zm.123.287,1.08-1.746.032.08-1.08,1.746Zm.126.29,1.067-1.768.036.083-1.067,1.768Zm.123.287,1.057-1.779.039.087-1.06,1.779Zm.123.29,1.063-1.764.035.095-1.06,1.764Zm.123.287,1.05-1.782.042.1-1.05,1.782Zm.123.29,1.04-1.8.042.1-1.036,1.8Zm.127.287,1.033-1.807.042.109-1.03,1.8Zm.123.29,1.036-1.789.045.116L26.4,13.647Zm.123.287,1.036-1.778.045.12-1.032,1.774Zm.123.29,1.023-1.8.048.124-1.019,1.8Zm.127.287,1.006-1.832.052.131-1,1.828Zm.123.287,1-1.846.051.135L26.9,14.816Zm.123.29.99-1.857.055.142-.983,1.857Zm.123.287.983-1.864.055.145-.976,1.86Zm.123.29.979-1.864.058.149-.972,1.86Zm.127.287.976-1.86.061.156-.972,1.857Zm.123.29.969-1.867.061.16-.962,1.863Zm.123.287.969-1.86.064.164-.962,1.856Zm.123.29.953-1.893.064.171-.945,1.889Zm.127.287.949-1.889.068.175-.942,1.885Zm.123.29.955-1.867.071.182-.952,1.863Zm.123.287.935-1.9.071.185-.928,1.9Zm.123.29.929-1.906.074.189-.925,1.9Zm.123.287.928-1.9.074.2-.925,1.891Zm.126.29.951-1.837.067.178L28.54,18.63Zm.211.49-.088-.2.931-1.87.067.178Zm.123.294-.087-.207.905-1.928.08.211Zm.966-2.118-.689-1.648L31.4,10.5l1.552-.266ZM0,3.9,11.308,19.909l1.907.037L1.579,2.731ZM26.862,19.3l1.778.06L24.316,9.349l-1.2,1.862ZM14.517,18.223l1.076,1.455,2.011.032-1.833-3.038-.181,0L14.5,18.2ZM29,19.059l1.583.079L29.8,17.29Z" transform="translate(0 0)"/>
  </g>
</svg>
