<svg xmlns="http://www.w3.org/2000/svg" width="68.115" height="73.909" viewBox="0 0 68.115 73.909">
  <defs>
    <style>
      .cls-1 {
        fill: #0178d4;
      }
    </style>
  </defs>
  <g id="favicon3" transform="translate(0 8.449) rotate(-8.192)">
    <path id="Pfad_2" data-name="Pfad 2" class="cls-1" d="M58.175,33.433l-3.087.972L50.872,51.039,45.137,24.6l-3.309,1.553L40.691,21.4,37.21,23.414,26.147,51.2,9.4,0,2.96,8.847l20.4,57.093,2.113-5.587-.006-.012L27.379,55.3l.427-.021,3.174,9.919,9.61-28.02-.028-.145L42.712,31h0l.07-.214,7.615,33.4.293-.059,1.666-6.961L53.746,63.3,59.3,39.114ZM3.885,10.061,9.623,1.893l.076.215L3.961,10.276Zm.56,1.561,5.673-8.285.088.238L4.533,11.86Zm.56,1.549,5.589-8.365.093.262L5.1,13.433Zm.554,1.561,5.563-8.3.105.286-5.563,8.3Zm.56,1.561,5.468-8.429.111.322L6.229,16.615Zm.554,1.549L12.15,9.6l.122.346L6.8,18.188Zm.56,1.561,5.352-8.457.134.369L7.367,19.772Zm.56,1.561,5.292-8.489.14.393L7.932,21.357Zm.554,1.561,5.168-8.712.152.429L8.5,22.955Zm.56,1.549,5.136-8.66.163.453L9.07,24.527Zm.56,1.561,5.093-8.608.169.477-5.1,8.608ZM10.02,27.2,15,18.352l.168.526L10.2,27.709Zm.56,1.549,4.966-8.708.187.524L10.766,29.27Zm.554,1.561,4.918-8.742.186.573-4.906,8.716Zm.56,1.561,4.881-8.7.2.6L11.9,32.439Zm.56,1.549L17.1,24.754l.2.633-4.831,8.637Zm.554,1.561,4.713-8.9.215.657-4.7,8.872Zm.56,1.561,4.653-8.929.221.681-4.64,8.9Zm.554,1.561,4.622-8.878.232.717-4.6,8.852Zm.56,1.549,4.556-8.934.244.74-4.537,8.908Zm.56,1.561,4.524-8.87.25.764L15.3,41.949Zm.554,1.561,4.452-8.926.262.788-4.439,8.9Zm.56,1.549L20.5,35.206l.267.824-4.332,9.076Zm.554,1.561,4.32-9.075.279.848-4.3,9.049Zm.56,1.561L21.533,38.4l.285.872-4.246,9.02ZM17.828,49l4.21-9.067.3.908-4.192,9.028Zm.554,1.549,4.162-9.063.3.932L18.7,51.458Zm.56,1.561,4.09-9.131.314.955L19.275,53.03Zm.56,1.561,4.023-9.187.319.992-4,9.149Zm.554,1.549,3.957-9.231.331,1.015L20.406,56.2Zm.56,1.561,3.932-9.155.337,1.039L20.971,57.8Zm.554,1.561,3.894-9.116.349,1.063-3.876,9.09Zm.56,1.561,3.88-9,.319.979-3.821,9.086Zm.56,1.549,3.843-8.977.319.979L22.68,62.539Zm.946,2.927-.392-1.366,3.76-9.069.378,1.146ZM27.814,54.8l-.445.034-1.051-3.237,11-27.919,3.074-1.706ZM42.443,30.7,36.82,46.856l5.546-16.345L41.5,27.345l1,3.254ZM41.9,26.482l3.015-1.444-2,5.1Zm1.146,4.136L45.078,25.2l.028.133-2.037,5.422Zm.2.854,1.969-5.7.034.144-1.969,5.7Zm.216.951L45.4,26.665l.034.169-1.945,5.758Zm.216.963L45.606,27.6l.04.181-1.933,5.781Zm.216.951,1.944-5.7.046.192-1.944,5.7Zm.222.962,1.915-5.8.045.217-1.915,5.8Zm.216.951,1.9-5.828.051.229-1.9,5.828Zm.216.963,1.914-5.743.057.241L44.6,37.453Zm.216.951,1.9-5.791.057.265-1.9,5.791Zm.222.962,1.874-5.862.063.277L45.045,39.4Zm.216.951,1.856-5.9.068.289-1.862,5.9Zm.216.963,1.867-5.85.062.314-1.861,5.849Zm.216.951,1.844-5.909.074.325L45.7,42.315Zm.216.963,1.827-5.969.074.337-1.821,5.969Zm.222.95,1.815-5.993.073.362-1.809,5.98Zm.216.963,1.82-5.932.079.386L46.37,45.251Zm.216.951,1.819-5.895.079.4L46.587,46.2Zm.216.963,1.8-5.979.085.41-1.79,5.966Zm.222.95,1.767-6.075.091.434-1.761,6.062Zm.216.951,1.75-6.122L49,43l-1.744,6.122Zm.216.963,1.738-6.158.1.47L47.48,50.112Zm.216.951,1.727-6.182.1.482L47.7,51.063Zm.216.963,1.72-6.181.1.494-1.708,6.168Zm.222.95,1.714-6.168.107.518-1.708,6.156Zm.216.963,1.7-6.192.107.53-1.69,6.179Zm.216.951,1.7-6.168.113.542-1.69,6.154Zm.216.963,1.673-6.276.113.567L48.8,55.937Zm.222.95,1.667-6.263.119.579L49.029,56.9Zm.216.963,1.678-6.19.124.6-1.672,6.177Zm.216.951,1.643-6.3.124.615-1.631,6.284Zm.216.963,1.631-6.321.13.627-1.625,6.309Zm.216.951,1.631-6.284.13.651L49.9,60.8Zm.222.962,1.67-6.092.118.591-1.641,6.151Zm.37,1.625-.154-.662,1.635-6.2.118.591Zm.216.975-.153-.686,1.59-6.392.141.7Zm1.7-7.024-1.21-5.466,4.1-16.43,2.726-.883ZM0,12.931,19.864,66.013l3.35.122L2.774,9.057ZM47.184,64l3.123.2L42.712,31,40.6,37.173ZM25.5,60.424,27.39,65.25l3.533.108L27.7,55.284l-.317.012L25.47,60.353Zm25.433,2.769,2.781.264-1.37-6.127Z" transform="translate(0 0)"/>
  </g>
</svg>
